<svg width="199" height="47" viewBox="0 0 199 47" fill="none" xmlns="http://www.w3.org/2000/svg">
<rect width="199" height="47" rx="23.5" fill="#4E6D2B"/>
<path d="M69.032 20H72.632V32H69.032V30.872C68.24 31.784 67.064 32.336 65.456 32.336C62.312 32.336 59.72 29.576 59.72 26C59.72 22.424 62.312 19.664 65.456 19.664C67.064 19.664 68.24 20.216 69.032 21.128V20ZM66.176 28.928C67.832 28.928 69.032 27.8 69.032 26C69.032 24.2 67.832 23.072 66.176 23.072C64.52 23.072 63.32 24.2 63.32 26C63.32 27.8 64.52 28.928 66.176 28.928ZM89.7931 26C89.7931 29.096 87.6571 31.568 83.9851 32.144V36.8H80.4811V32.144C76.8091 31.568 74.6731 29.096 74.6731 26C74.6731 22.904 76.8091 20.432 80.4811 19.856V15.2H83.9851V19.856C87.6571 20.432 89.7931 22.904 89.7931 26ZM78.2251 26C78.2251 27.32 78.9931 28.304 80.4811 28.712V23.288C78.9931 23.696 78.2251 24.68 78.2251 26ZM83.9851 28.712C85.4731 28.304 86.2411 27.32 86.2411 26C86.2411 24.68 85.4731 23.696 83.9851 23.288V28.712ZM100.483 20H103.123V32H99.6194V26L94.4834 32H91.8434V20H95.3474V26L100.483 20ZM119.685 20H123.285V32H105.765V20H109.365V28.64H112.725V20H116.325V28.64H119.685V20ZM134.634 20H138.234V32H134.634V30.872C133.842 31.784 132.666 32.336 131.058 32.336C127.914 32.336 125.322 29.576 125.322 26C125.322 22.424 127.914 19.664 131.058 19.664C132.666 19.664 133.842 20.216 134.634 21.128V20ZM131.778 28.928C133.434 28.928 134.634 27.8 134.634 26C134.634 24.2 133.434 23.072 131.778 23.072C130.122 23.072 128.922 24.2 128.922 26C128.922 27.8 130.122 28.928 131.778 28.928Z" fill="white"/>
</svg>
