<svg width="1046" height="828" viewBox="0 0 1046 828" fill="none" xmlns="http://www.w3.org/2000/svg">
    <path d="M501.5 90L644 141L166 622L0.5 527.5L501.5 90Z" fill="#C4BAA1"/>
    <path d="M887 0.5L1046 46L770.5 395.5L587 314L719.5 175L701.5 168L642 240V148.5L685.5 103.5L764.5 129.5L887 0.5Z" fill="#C4BAA1"/>
    <path d="M553 441.307L600.633 392.5L606 462.5L553 441.307Z" fill="#C4BAA1"/>
    <path d="M1 528.5L165.5 603.5L644 141L647.5 224L703 166L721 174L590 314.5L596 398.5L562 437.5L600.5 454L590 314.5L765.5 379.5L1046 46L1037 256L765.5 606.5L607 541L602 476.5L562 461L221 828L68 748.5L1 528.5Z" fill="#4E6D2B"/>
</svg>
