<svg width="934" height="794" viewBox="0 0 934 794" fill="none" xmlns="http://www.w3.org/2000/svg">
    <path d="M493 95.5L797 273.5L641 367.5L349 189.5L493 95.5Z" fill="#C4BAA1"/>
    <path d="M28 272.5L228 128.5L328 57.5L442 0.5L613 77.5L403 226.5L184 373.5L28 272.5Z" fill="#C4BAA1"/>
    <path d="M251 70.5L330.5 13L602 129.5L519 198.5L251 70.5Z" fill="#C4BAA1"/>
    <path d="M158 113.5L190 87.5L464 207.5L433 237.5L158 113.5Z" fill="#C4BAA1"/>
    <path d="M325 543.5L739 240.5L933 353.5L477 682.5L325 543.5Z" fill="#C4BAA1"/>
    <path d="M29 278.5L35.5 318.5L1 299.5L29 278.5Z" fill="#C4BAA1"/>
    <path d="M27 272.5L185 373L406 224.5L600.5 343L500.5 415.5L416 361L201.5 506L50 406L44 375.104L9.5 352L0 298L33 317L27 272.5Z" fill="#4E6D2B"/>
    <path d="M158 112.5L213.5 138.5L158 179.5V112.5Z" fill="#4E6D2B"/>
    <path d="M250.5 70.5L286 87.5L253 112.5L250.5 70.5Z" fill="#4E6D2B"/>
    <path d="M326 543.5L477 678L933.5 353.5L924.5 482L477 793.5L345 683L326 543.5Z" fill="#4E6D2B"/>
    <path d="M563 112.5L612.5 77L610 127V164L580.5 147L602 129.5L563 112.5Z" fill="#4E6D2B"/>
</svg>
