<svg width="126" height="126" viewBox="0 0 126 126" fill="none" xmlns="http://www.w3.org/2000/svg">
<circle cx="63" cy="63" r="63" fill="white"/>
<path d="M63 0C28.1955 0 0 28.1996 0 63C0 97.8004 28.1996 126 63 126C97.8044 126 126 97.8004 126 63C126 28.1996 97.8004 0 63 0ZM93.9432 43.1611L83.603 91.8865C82.8389 95.3414 80.7823 96.1786 77.9127 94.5528L62.1627 82.9446L54.5661 90.2607C53.7288 91.098 53.0175 91.8093 51.3917 91.8093L52.5095 75.7788L81.6968 49.4083C82.969 48.2905 81.4163 47.6565 79.7377 48.7742L43.6651 71.4826L28.1183 66.6296C24.7407 65.5647 24.6635 63.252 28.8296 61.6262L89.5697 38.2024C92.3905 37.1863 94.8536 38.8893 93.9391 43.157L93.9432 43.1611Z" fill="#4E6D2B"/>
</svg>
