<svg width="1480" height="914" viewBox="0 0 1480 914" fill="none" xmlns="http://www.w3.org/2000/svg">
    <path d="M0 389L207.5 497L406.5 659L670 584.5L909.5 442L1383 94L1478 111.5L1464.5 240L1332 336L1316.5 326.5L1217.5 399V423.5L1045 550.5L1022.5 535.5L903 622.5V645L704.5 788.5L670 761L453.5 914L152 624L134 637.5L41.5 557L0 389Z" fill="#4E6D2B"/>
    <path d="M0 388L228 262.5L489 462.5L695 337.5L663 314L1109.5 40L1169.5 73L1282 0.5L1338.5 28.5V40L1479.5 112L1343.5 209L1328.5 201.5V164L1214 247L1231 256.5L1047.5 383.5L1026 368.5L883.5 466L902.5 479L692.5 620L658 592.5L421.5 750L311.5 656L335.5 640L115 458L96 469.5L0 388Z" fill="#C4BAA1"/>
</svg>
