<svg width="955" height="362" viewBox="0 0 955 362" fill="none" xmlns="http://www.w3.org/2000/svg">
    <path d="M716.169 39.1528L778.507 61.4634L569.4 271.883L497 230.543L716.169 39.1528Z" fill="#C4BAA1"/>
    <path d="M884.81 0L954.367 19.9045L833.846 172.798L753.572 137.144L811.535 76.3372L803.661 73.2749L777.632 104.772V64.7444L796.662 45.0586L831.221 56.4326L884.81 0Z" fill="#C4BAA1"/>
    <path d="M738.698 192.836L758.5 118.5L761.883 202.107L738.698 192.836Z" fill="#C4BAA1"/>
    <path d="M497.219 230.98L569.181 263.79L778.507 61.4636L780.038 97.7729L804.317 72.4001L812.192 75.8998L754.884 137.363L757.509 174.11L742.635 191.171L759.477 198.389L754.884 137.363L831.659 165.798L954.367 19.9046L950.43 111.772L831.659 265.102L762.321 236.448L760.134 208.232L742.635 201.451L593.46 362L526.529 327.222L497.219 230.98Z" fill="#4E6D2B"/>
    <path d="M27.7632 202L25.8732 196.06H11.8332L9.94316 202H0.493164L13.3452 164.2H24.3612L37.2132 202H27.7632ZM14.4252 187.96H23.2812L18.8532 174.082L14.4252 187.96ZM60.3083 188.176C62.6303 189.418 63.9263 191.524 63.9263 194.278C63.9263 198.76 60.7403 202 54.7463 202H40.1663V175H53.6663C59.6603 175 62.8463 178.24 62.8463 182.722C62.8463 185.044 61.9823 186.934 60.3083 188.176ZM52.8023 181.48H47.7263V185.26H52.8023C54.2603 185.26 55.1783 184.72 55.1783 183.424C55.1783 182.074 54.2603 181.48 52.8023 181.48ZM53.6663 195.304C55.0703 195.304 56.0423 194.656 56.0423 193.306C56.0423 192.01 55.0703 191.416 53.6663 191.416H47.7263V195.304H53.6663ZM89.3 175V182.776H81.254V202H73.154V182.776H65V175H89.3ZM104.701 202.756C96.7625 202.756 90.3905 196.546 90.3905 188.5C90.3905 180.454 96.7625 174.244 104.701 174.244C112.639 174.244 119.011 180.454 119.011 188.5C119.011 196.546 112.639 202.756 104.701 202.756ZM104.701 194.872C108.211 194.872 110.911 192.334 110.911 188.5C110.911 184.666 108.211 182.128 104.701 182.128C101.191 182.128 98.4905 184.666 98.4905 188.5C98.4905 192.334 101.191 194.872 104.701 194.872ZM138.953 188.284C141.491 189.634 142.895 191.902 142.895 194.656C142.895 199.138 139.007 202.756 131.717 202.756C126.317 202.756 122.483 200.704 120.377 196.33L126.911 192.442C127.667 194.548 129.341 195.736 131.825 195.736C133.823 195.736 135.011 194.98 135.011 193.63C135.011 192.442 134.255 191.74 132.473 191.74H128.693V184.936H131.609C133.337 184.936 134.147 184.288 134.147 183.1C134.147 181.804 133.121 181.156 131.609 181.156C129.557 181.156 128.153 182.128 127.181 184.288L120.647 180.562C122.915 176.188 126.803 174.244 131.447 174.244C138.035 174.244 141.815 178.078 141.815 182.344C141.815 184.828 140.897 186.934 138.953 188.284ZM166.555 175H174.655V202H166.555V199.462C164.773 201.514 162.127 202.756 158.509 202.756C151.435 202.756 145.603 196.546 145.603 188.5C145.603 180.454 151.435 174.244 158.509 174.244C162.127 174.244 164.773 175.486 166.555 177.538V175ZM160.129 195.088C163.855 195.088 166.555 192.55 166.555 188.5C166.555 184.45 163.855 181.912 160.129 181.912C156.403 181.912 153.703 184.45 153.703 188.5C153.703 192.55 156.403 195.088 160.129 195.088ZM200.74 188.176C203.062 189.418 204.358 191.524 204.358 194.278C204.358 198.76 201.172 202 195.178 202H180.598V175H194.098C200.092 175 203.278 178.24 203.278 182.722C203.278 185.044 202.414 186.934 200.74 188.176ZM193.234 181.48H188.158V185.26H193.234C194.692 185.26 195.61 184.72 195.61 183.424C195.61 182.074 194.692 181.48 193.234 181.48ZM194.098 195.304C195.502 195.304 196.474 194.656 196.474 193.306C196.474 192.01 195.502 191.416 194.098 191.416H188.158V195.304H194.098ZM221.349 202.756C213.411 202.756 207.039 196.546 207.039 188.5C207.039 180.454 213.411 174.244 221.349 174.244C229.287 174.244 235.659 180.454 235.659 188.5C235.659 196.546 229.287 202.756 221.349 202.756ZM221.349 194.872C224.859 194.872 227.559 192.334 227.559 188.5C227.559 184.666 224.859 182.128 221.349 182.128C217.839 182.128 215.139 184.666 215.139 188.5C215.139 192.334 217.839 194.872 221.349 194.872ZM264.026 194.44H267.536V209.236H259.652V202H244.64V209.236H236.756V194.44H240.104C241.454 192.334 242.264 189.742 242.264 185.098V175H264.026V194.44ZM248.582 194.44H256.142V182.236H250.148V185.098C250.148 189.04 249.608 192.01 248.582 194.44ZM283.47 202.756C275.262 202.756 269.16 196.546 269.16 188.5C269.16 180.454 275.262 174.244 283.47 174.244C288.708 174.244 293.352 176.998 295.674 181.156L288.6 185.26C287.682 183.37 285.738 182.236 283.362 182.236C279.852 182.236 277.26 184.774 277.26 188.5C277.26 192.226 279.852 194.764 283.362 194.764C285.738 194.764 287.736 193.63 288.6 191.74L295.674 195.79C293.352 200.002 288.762 202.756 283.47 202.756ZM325.118 202H315.938L307.298 190.066V202H299.198V175H307.298V186.826L315.398 175H324.848L315.02 188.5L325.118 202ZM346.063 175H354.163V202H346.063V199.462C344.281 201.514 341.635 202.756 338.017 202.756C330.943 202.756 325.111 196.546 325.111 188.5C325.111 180.454 330.943 174.244 338.017 174.244C341.635 174.244 344.281 175.486 346.063 177.538V175ZM339.637 195.088C343.363 195.088 346.063 192.55 346.063 188.5C346.063 184.45 343.363 181.912 339.637 181.912C335.911 181.912 333.211 184.45 333.211 188.5C333.211 192.55 335.911 195.088 339.637 195.088ZM382.516 175V202H374.632V194.224H372.958L367.396 202H358.216L364.534 193.09C361.186 191.416 359.296 187.96 359.296 184.612C359.296 179.86 362.806 175 369.34 175H382.516ZM370.042 182.128C368.314 182.128 367.18 183.154 367.18 184.882C367.18 186.556 368.314 187.528 370.042 187.528H374.632V182.128H370.042Z" fill="black"/>
</svg>
