<svg width="954" height="395" viewBox="0 0 954 395" fill="none" xmlns="http://www.w3.org/2000/svg">
    <path d="M242.268 46.6845L391.658 134.157L314.997 180.35L171.504 92.8776L242.268 46.6845Z" fill="#C4BAA1"/>
    <path d="M13.7596 133.665L112.043 62.9012L161.184 28.0107L217.206 0L301.238 37.839L198.041 111.06L90.4205 183.298L13.7596 133.665Z" fill="#C4BAA1"/>
    <path d="M123.345 34.3989L162.413 6.14252L295.832 63.3924L255.045 97.3001L123.345 34.3989Z" fill="#C4BAA1"/>
    <path d="M77.6437 55.53L93.369 42.7532L228.017 101.723L212.783 116.466L77.6437 55.53Z" fill="#C4BAA1"/>
    <path d="M159.71 266.839L363.156 117.94L458.491 173.47L234.405 335.146L159.71 266.839Z" fill="#C4BAA1"/>
    <path d="M14.2511 136.613L17.4453 156.27L0.491455 146.933L14.2511 136.613Z" fill="#C4BAA1"/>
    <path d="M13.2682 133.665L90.9119 183.052L199.515 110.077L295.095 168.31L245.954 203.937L204.429 177.155L95.5 254L24.5708 199.269L21.6223 184.086L4.66845 172.732L0 146.196L16.2167 155.533L13.2682 133.665Z" fill="#4E6D2B"/>
    <path d="M77.6437 55.0385L104.917 67.8153L77.6437 87.9634V55.0385Z" fill="#4E6D2B"/>
    <path d="M123.1 34.399L140.545 42.7531L124.328 55.0385L123.1 34.399Z" fill="#4E6D2B"/>
    <path d="M160.202 266.839L234.405 332.934L458.737 173.47L454.314 236.617L234.405 394.5L169.538 335.391L160.202 266.839Z" fill="#4E6D2B"/>
    <path d="M276.667 55.0384L300.992 37.5931L299.764 62.1639V80.3463L285.267 71.9922L295.832 63.3925L276.667 55.0384Z" fill="#4E6D2B"/>
    <path d="M679.086 107.24C686.808 107.24 692.046 111.938 692.046 119.12C692.046 126.302 686.808 131 679.086 131H664.506V93.2H688.806V101.516H673.146V107.24H679.086ZM679.086 122.9C681.462 122.9 683.406 121.874 683.406 119.12C683.406 116.366 681.462 115.34 679.086 115.34H673.146V122.9H679.086ZM708.784 131.756C700.846 131.756 694.474 125.546 694.474 117.5C694.474 109.454 700.846 103.244 708.784 103.244C716.722 103.244 723.094 109.454 723.094 117.5C723.094 125.546 716.722 131.756 708.784 131.756ZM708.784 123.872C712.294 123.872 714.994 121.334 714.994 117.5C714.994 113.666 712.294 111.128 708.784 111.128C705.274 111.128 702.574 113.666 702.574 117.5C702.574 121.334 705.274 123.872 708.784 123.872ZM750.638 104V131H742.538V111.776H736.706V119.822C736.706 127.976 732.602 131.918 724.718 131V123.44C727.256 124.196 728.606 122.63 728.606 119.282V104H750.638ZM769.21 112.1C775.744 112.1 779.794 115.88 779.794 121.55C779.794 127.22 775.744 131 769.21 131H756.574V104H764.674V112.1H769.21ZM769.264 123.98C770.884 123.98 771.91 122.954 771.91 121.55C771.91 120.146 770.884 119.12 769.264 119.12H764.674V123.98H769.264ZM815.157 104H823.257V131H783.837V104H791.937V123.44H799.497V104H807.597V123.44H815.157V104ZM848.791 104H856.891V131H848.791V128.462C847.009 130.514 844.363 131.756 840.745 131.756C833.671 131.756 827.839 125.546 827.839 117.5C827.839 109.454 833.671 103.244 840.745 103.244C844.363 103.244 847.009 104.486 848.791 106.538V104ZM842.365 124.088C846.091 124.088 848.791 121.55 848.791 117.5C848.791 113.45 846.091 110.912 842.365 110.912C838.639 110.912 835.939 113.45 835.939 117.5C835.939 121.55 838.639 124.088 842.365 124.088ZM885.243 104V131H877.359V123.224H875.685L870.123 131H860.943L867.261 122.09C863.913 120.416 862.023 116.96 862.023 113.612C862.023 108.86 865.533 104 872.067 104H885.243ZM872.769 111.128C871.041 111.128 869.907 112.154 869.907 113.882C869.907 115.556 871.041 116.528 872.769 116.528H877.359V111.128H872.769ZM630.44 197.756C619.046 197.756 610.784 189.224 610.784 178.1C610.784 166.976 619.046 158.444 630.44 158.444C637.298 158.444 643.346 161.846 646.64 167.192L639.188 171.512C637.514 168.596 634.274 166.868 630.44 166.868C623.744 166.868 619.424 171.35 619.424 178.1C619.424 184.85 623.744 189.332 630.44 189.332C634.274 189.332 637.568 187.604 639.188 184.688L646.64 189.008C643.4 194.354 637.352 197.756 630.44 197.756ZM657.919 186.74C658.945 189.548 661.429 190.52 664.399 190.52C666.613 190.52 668.503 189.656 669.583 188.468L676.063 192.194C673.417 195.866 669.421 197.756 664.291 197.756C655.057 197.756 649.333 191.546 649.333 183.5C649.333 175.454 655.165 169.244 663.697 169.244C671.581 169.244 677.413 175.346 677.413 183.5C677.413 184.634 677.305 185.714 677.089 186.74H657.919ZM657.757 180.692H669.367C668.503 177.56 666.073 176.426 663.643 176.426C660.565 176.426 658.513 177.938 657.757 180.692ZM710.627 170V197H702.851V183.068L696.803 192.464H695.831L689.783 183.068V197H682.007V170H689.783L696.317 180.206L702.851 170H710.627ZM723.784 186.74C724.81 189.548 727.294 190.52 730.264 190.52C732.478 190.52 734.368 189.656 735.448 188.468L741.928 192.194C739.282 195.866 735.286 197.756 730.156 197.756C720.922 197.756 715.198 191.546 715.198 183.5C715.198 175.454 721.03 169.244 729.562 169.244C737.446 169.244 743.278 175.346 743.278 183.5C743.278 184.634 743.17 185.714 742.954 186.74H723.784ZM723.622 180.692H735.232C734.368 177.56 731.938 176.426 729.508 176.426C726.43 176.426 724.378 177.938 723.622 180.692ZM765.152 170H773.252V197H765.152V187.28H755.972V197H747.872V170H755.972V179.72H765.152V170ZM792.157 197.756C784.219 197.756 777.847 191.546 777.847 183.5C777.847 175.454 784.219 169.244 792.157 169.244C800.095 169.244 806.467 175.454 806.467 183.5C806.467 191.546 800.095 197.756 792.157 197.756ZM792.157 189.872C795.667 189.872 798.367 187.334 798.367 183.5C798.367 179.666 795.667 177.128 792.157 177.128C788.647 177.128 785.947 179.666 785.947 183.5C785.947 187.334 788.647 189.872 792.157 189.872ZM831.19 183.176C833.512 184.418 834.808 186.524 834.808 189.278C834.808 193.76 831.622 197 825.628 197H811.048V170H824.548C830.542 170 833.728 173.24 833.728 177.722C833.728 180.044 832.864 181.934 831.19 183.176ZM823.684 176.48H818.608V180.26H823.684C825.142 180.26 826.06 179.72 826.06 178.424C826.06 177.074 825.142 176.48 823.684 176.48ZM824.548 190.304C825.952 190.304 826.924 189.656 826.924 188.306C826.924 187.01 825.952 186.416 824.548 186.416H818.608V190.304H824.548ZM851.799 197.756C843.591 197.756 837.489 191.546 837.489 183.5C837.489 175.454 843.591 169.244 851.799 169.244C857.037 169.244 861.681 171.998 864.003 176.156L856.929 180.26C856.011 178.37 854.067 177.236 851.691 177.236C848.181 177.236 845.589 179.774 845.589 183.5C845.589 187.226 848.181 189.764 851.691 189.764C854.067 189.764 856.065 188.63 856.929 186.74L864.003 190.79C861.681 195.002 857.091 197.756 851.799 197.756ZM893.447 197H884.267L875.627 185.066V197H867.527V170H875.627V181.826L883.727 170H893.177L883.349 183.5L893.447 197ZM914.392 170H922.492V197H914.392V194.462C912.61 196.514 909.964 197.756 906.346 197.756C899.272 197.756 893.44 191.546 893.44 183.5C893.44 175.454 899.272 169.244 906.346 169.244C909.964 169.244 912.61 170.486 914.392 172.538V170ZM907.966 190.088C911.692 190.088 914.392 187.55 914.392 183.5C914.392 179.45 911.692 176.912 907.966 176.912C904.24 176.912 901.54 179.45 901.54 183.5C901.54 187.55 904.24 190.088 907.966 190.088ZM950.845 170V197H942.961V189.224H941.287L935.725 197H926.545L932.863 188.09C929.515 186.416 927.625 182.96 927.625 179.612C927.625 174.86 931.135 170 937.669 170H950.845ZM938.371 177.128C936.643 177.128 935.509 178.154 935.509 179.882C935.509 181.556 936.643 182.528 938.371 182.528H942.961V177.128H938.371Z" fill="black"/>
</svg>
