<svg width="955" height="370" viewBox="0 0 955 370" fill="none" xmlns="http://www.w3.org/2000/svg">
    <path d="M355 157.315L439.023 201.047L519.603 266.645L626.302 236.478L723.282 178.776L915.016 37.8608L953.484 44.9471L948.018 96.9804L894.365 135.853L888.088 132.007L848 161.364V171.285L778.15 222.711L769.039 216.637L720.65 251.865V260.976L640.272 319.084L626.302 307.948L538.635 369.902L416.549 252.473L409.26 257.939L371.805 225.343L355 157.315Z" fill="#4E6D2B"/>
    <path d="M355 156.91L447.324 106.091L553.01 187.077L636.425 136.461L623.467 126.945L804.268 15.9947L828.564 29.3573L874.118 0L896.997 11.338V15.9947L954.091 45.1495L899.021 84.4275L892.947 81.3906V66.2058L846.583 99.8148L853.467 103.662L779.162 155.088L770.456 149.014L712.754 188.494L720.448 193.758L635.413 250.853L621.443 239.718L525.677 303.494L481.135 265.43L490.853 258.952L401.567 185.255L393.873 189.911L355 156.91Z" fill="#C4BAA1"/>
    <path d="M84.7965 147.2V185H76.1565V155.516H64.8165V185H56.1765V147.2H84.7965ZM110.63 158H118.73V185H110.63V182.462C108.848 184.514 106.202 185.756 102.584 185.756C95.5096 185.756 89.6776 179.546 89.6776 171.5C89.6776 163.454 95.5096 157.244 102.584 157.244C106.202 157.244 108.848 158.486 110.63 160.538V158ZM104.204 178.088C107.93 178.088 110.63 175.55 110.63 171.5C110.63 167.45 107.93 164.912 104.204 164.912C100.478 164.912 97.7776 167.45 97.7776 171.5C97.7776 175.55 100.478 178.088 104.204 178.088ZM144.814 171.176C147.136 172.418 148.432 174.524 148.432 177.278C148.432 181.76 145.246 185 139.252 185H124.672V158H138.172C144.166 158 147.352 161.24 147.352 165.722C147.352 168.044 146.488 169.934 144.814 171.176ZM137.308 164.48H132.232V168.26H137.308C138.766 168.26 139.684 167.72 139.684 166.424C139.684 165.074 138.766 164.48 137.308 164.48ZM138.172 178.304C139.576 178.304 140.548 177.656 140.548 176.306C140.548 175.01 139.576 174.416 138.172 174.416H132.232V178.304H138.172ZM175.953 158V185H167.853V165.776H162.021V173.822C162.021 181.976 157.917 185.918 150.033 185V177.44C152.571 178.196 153.921 176.63 153.921 173.282V158H175.953ZM201.491 158H209.591V185H201.491V182.462C199.709 184.514 197.063 185.756 193.445 185.756C186.371 185.756 180.539 179.546 180.539 171.5C180.539 163.454 186.371 157.244 193.445 157.244C197.063 157.244 199.709 158.486 201.491 160.538V158ZM195.065 178.088C198.791 178.088 201.491 175.55 201.491 171.5C201.491 167.45 198.791 164.912 195.065 164.912C191.339 164.912 188.639 167.45 188.639 171.5C188.639 175.55 191.339 178.088 195.065 178.088ZM34.2435 251H24.4155L12.3195 233.504V251H3.67945V213.2H12.3195V229.616L23.8755 213.2H33.7035L20.9595 231.614L34.2435 251ZM47.7464 251.756C39.8084 251.756 33.4364 245.546 33.4364 237.5C33.4364 229.454 39.8084 223.244 47.7464 223.244C55.6844 223.244 62.0564 229.454 62.0564 237.5C62.0564 245.546 55.6844 251.756 47.7464 251.756ZM47.7464 243.872C51.2564 243.872 53.9564 241.334 53.9564 237.5C53.9564 233.666 51.2564 231.128 47.7464 231.128C44.2364 231.128 41.5364 233.666 41.5364 237.5C41.5364 241.334 44.2364 243.872 47.7464 243.872ZM82.784 223.244C89.858 223.244 95.69 229.454 95.69 237.5C95.69 245.546 89.858 251.756 82.784 251.756C79.166 251.756 76.52 250.514 74.738 248.462V261.8H66.638V224H74.738V226.538C76.52 224.486 79.166 223.244 82.784 223.244ZM81.164 244.088C84.89 244.088 87.59 241.55 87.59 237.5C87.59 233.45 84.89 230.912 81.164 230.912C77.438 230.912 74.738 233.45 74.738 237.5C74.738 241.55 77.438 244.088 81.164 244.088ZM115.145 224H123.245V251H115.145V242.9C113.309 243.44 111.365 243.764 109.205 243.764C103.157 243.764 98.4052 240.632 98.4052 233.99V224H106.505V232.91C106.505 235.502 108.557 236.204 110.825 236.204C112.661 236.204 114.011 235.88 115.145 235.34V224ZM148.783 224H156.883V251H148.783V248.462C147.001 250.514 144.355 251.756 140.737 251.756C133.663 251.756 127.831 245.546 127.831 237.5C127.831 229.454 133.663 223.244 140.737 223.244C144.355 223.244 147.001 224.486 148.783 226.538V224ZM142.357 244.088C146.083 244.088 148.783 241.55 148.783 237.5C148.783 233.45 146.083 230.912 142.357 230.912C138.631 230.912 135.931 233.45 135.931 237.5C135.931 241.55 138.631 244.088 142.357 244.088ZM181.725 224V231.776H170.925V251H162.825V224H181.725ZM204.678 224H210.618V251H202.734V237.5L191.178 251H185.238V224H193.122V237.5L204.678 224ZM233.842 224H241.942V251H233.842V241.28H224.662V251H216.562V224H224.662V233.72H233.842V224ZM267.488 224H275.588V251H267.488V248.462C265.706 250.514 263.06 251.756 259.442 251.756C252.368 251.756 246.536 245.546 246.536 237.5C246.536 229.454 252.368 223.244 259.442 223.244C263.06 223.244 265.706 224.486 267.488 226.538V224ZM261.062 244.088C264.788 244.088 267.488 241.55 267.488 237.5C267.488 233.45 264.788 230.912 261.062 230.912C257.336 230.912 254.636 233.45 254.636 237.5C254.636 241.55 257.336 244.088 261.062 244.088Z" fill="black"/>
</svg>
