<svg width="955" height="391" viewBox="0 0 955 391" fill="none" xmlns="http://www.w3.org/2000/svg">
    <path d="M59.3626 0L335.289 72.5543L474.901 264.713L363.211 307.806L245.365 134.115L0 63.3201L59.3626 0Z" fill="#C4BAA1"/>
    <path d="M0 63.3202L246.685 133.236L363.651 306.927L476 264.054L467.206 348.48L361.012 390.474L246.685 217.223L10.9931 147.747L0 63.3202Z" fill="#4E6D2B"/>
    <path d="M599.219 128.2V166H590.579V136.516H579.239V166H570.599V128.2H599.219ZM621.596 138.244C628.67 138.244 634.502 144.454 634.502 152.5C634.502 160.546 628.67 166.756 621.596 166.756C617.978 166.756 615.332 165.514 613.55 163.462V176.8H605.45V139H613.55V141.538C615.332 139.486 617.978 138.244 621.596 138.244ZM619.976 159.088C623.702 159.088 626.402 156.55 626.402 152.5C626.402 148.45 623.702 145.912 619.976 145.912C616.25 145.912 613.55 148.45 613.55 152.5C613.55 156.55 616.25 159.088 619.976 159.088ZM660.45 139V166H652.566V158.224H650.892L645.33 166H636.15L642.468 157.09C639.12 155.416 637.23 151.96 637.23 148.612C637.23 143.86 640.74 139 647.274 139H660.45ZM647.976 146.128C646.248 146.128 645.114 147.154 645.114 148.882C645.114 150.556 646.248 151.528 647.976 151.528H652.566V146.128H647.976ZM683.691 139H691.791V166H683.691V156.28H674.511V166H666.411V139H674.511V148.72H683.691V139ZM717.176 139H723.116V166H715.232V152.5L703.676 166H697.736V139H705.62V152.5L717.176 139ZM760.38 139H768.48V166H729.06V139H737.16V158.44H744.72V139H752.82V158.44H760.38V139ZM791.691 139H799.791V166H791.691V156.28H782.511V166H774.411V139H782.511V148.72H791.691V139ZM825.176 139H831.116V166H823.232V152.5L811.676 166H805.736V139H813.62V152.5L825.176 139ZM862.98 166H853.8L845.16 154.066V166H837.06V139H845.16V150.826L853.26 139H862.71L852.882 152.5L862.98 166ZM877.284 166.756C869.346 166.756 862.974 160.546 862.974 152.5C862.974 144.454 869.346 138.244 877.284 138.244C885.222 138.244 891.594 144.454 891.594 152.5C891.594 160.546 885.222 166.756 877.284 166.756ZM877.284 158.872C880.794 158.872 883.494 156.334 883.494 152.5C883.494 148.666 880.794 146.128 877.284 146.128C873.774 146.128 871.074 148.666 871.074 152.5C871.074 156.334 873.774 158.872 877.284 158.872ZM916.317 152.176C918.639 153.418 919.935 155.524 919.935 158.278C919.935 162.76 916.749 166 910.755 166H896.175V139H909.675C915.669 139 918.855 142.24 918.855 146.722C918.855 149.044 917.991 150.934 916.317 152.176ZM908.811 145.48H903.735V149.26H908.811C910.269 149.26 911.187 148.72 911.187 147.424C911.187 146.074 910.269 145.48 908.811 145.48ZM909.675 159.304C911.079 159.304 912.051 158.656 912.051 157.306C912.051 156.01 911.079 155.416 909.675 155.416H903.735V159.304H909.675ZM943.568 139H951.668V166H943.568V163.462C941.786 165.514 939.14 166.756 935.522 166.756C928.448 166.756 922.616 160.546 922.616 152.5C922.616 144.454 928.448 138.244 935.522 138.244C939.14 138.244 941.786 139.486 943.568 141.538V139ZM937.142 159.088C940.868 159.088 943.568 156.55 943.568 152.5C943.568 148.45 940.868 145.912 937.142 145.912C933.416 145.912 930.716 148.45 930.716 152.5C930.716 156.55 933.416 159.088 937.142 159.088Z" fill="black"/>
</svg>
